HIERARCHY
ROOT Hips
{
	OFFSET 0.000000 97.167313 0.000000
	CHANNELS 6 Xposition Yposition Zposition Xrotation Yrotation Zrotation
	JOINT Spine
	{
		OFFSET 0.000000 13.784798 0.064400
		CHANNELS 3 Xrotation Yrotation Zrotation
		JOINT Spine1
		{
			OFFSET 0.000000 12.037903 0.404700
			CHANNELS 3 Xrotation Yrotation Zrotation
			JOINT Spine2
			{
				OFFSET 0.000000 17.795601 0.420200
				CHANNELS 3 Xrotation Yrotation Zrotation
				JOINT Neck
				{
					OFFSET 0.000000 39.131302 11.954600
					CHANNELS 3 Xrotation Yrotation Zrotation
					JOINT Head
					{
						OFFSET 0.000000 14.456192 15.627699
						CHANNELS 3 Xrotation Yrotation Zrotation
						JOINT HeadTop_End
						{
							OFFSET 0.000000 15.703506 7.603401
							CHANNELS 3 Xrotation Yrotation Zrotation
							End Site
							{
								OFFSET 0.000000 17.447403 0.000000
							}
						}
					}
				}
				JOINT LeftShoulder
				{
					OFFSET 17.399500 24.608795 1.168800
					CHANNELS 3 Xrotation Yrotation Zrotation
					JOINT LeftArm
					{
						OFFSET 18.980635 5.765305 1.818600
						CHANNELS 3 Xrotation Yrotation Zrotation
						JOINT LeftForeArm
						{
							OFFSET 49.290169 0.000000 0.000000
							CHANNELS 3 Xrotation Yrotation Zrotation
							JOINT LeftHand
							{
								OFFSET 31.562012 0.000000 0.000000
								CHANNELS 3 Xrotation Yrotation Zrotation
								JOINT LeftHandThumb1
								{
									OFFSET 6.133995 -4.388519 7.076070
									CHANNELS 3 Xrotation Yrotation Zrotation
									JOINT LeftHandThumb2
									{
										OFFSET 6.037666 -3.485840 3.485847
										CHANNELS 3 Xrotation Yrotation Zrotation
										JOINT LeftHandThumb3
										{
											OFFSET 6.496506 -3.750763 3.750761
											CHANNELS 3 Xrotation Yrotation Zrotation
											JOINT LeftHandThumb4
											{
												OFFSET 5.616882 -3.242905 3.242910
												CHANNELS 3 Xrotation Yrotation Zrotation
												End Site
												{
													OFFSET -1.254608 7.132141 0.375429
												}
											}
										}
									}
								}
								JOINT LeftHandPinky1
								{
									OFFSET 18.920792 -0.453171 -11.426712
									CHANNELS 3 Xrotation Yrotation Zrotation
									JOINT LeftHandPinky2
									{
										OFFSET 4.919586 0.000000 0.000000
										CHANNELS 3 Xrotation Yrotation Zrotation
										JOINT LeftHandPinky3
										{
											OFFSET 5.233047 0.000000 0.000000
											CHANNELS 3 Xrotation Yrotation Zrotation
											JOINT LeftHandPinky4
											{
												OFFSET 5.571716 0.000000 0.000000
												CHANNELS 3 Xrotation Yrotation Zrotation
												End Site
												{
													OFFSET -3.459808 4.342407 -0.466164
												}
											}
										}
									}
								}
								JOINT LeftHandRing1
								{
									OFFSET 22.726120 -0.094986 -6.500475
									CHANNELS 3 Xrotation Yrotation Zrotation
									JOINT LeftHandRing2
									{
										OFFSET 6.408615 0.000000 0.000000
										CHANNELS 3 Xrotation Yrotation Zrotation
										JOINT LeftHandRing3
										{
											OFFSET 6.150223 0.000000 0.000000
											CHANNELS 3 Xrotation Yrotation Zrotation
											JOINT LeftHandRing4
											{
												OFFSET 6.145386 0.000000 0.000000
												CHANNELS 3 Xrotation Yrotation Zrotation
												End Site
												{
													OFFSET -3.671402 4.923981 -0.202372
												}
											}
										}
									}
								}
								JOINT LeftHandMiddle1
								{
									OFFSET 23.373947 0.000000 0.000001
									CHANNELS 3 Xrotation Yrotation Zrotation
									JOINT LeftHandMiddle2
									{
										OFFSET 6.996567 0.000000 0.000000
										CHANNELS 3 Xrotation Yrotation Zrotation
										JOINT LeftHandMiddle3
										{
											OFFSET 7.015945 0.000000 0.000000
											CHANNELS 3 Xrotation Yrotation Zrotation
											JOINT LeftHandMiddle4
											{
												OFFSET 7.721573 0.000000 0.000000
												CHANNELS 3 Xrotation Yrotation Zrotation
												End Site
												{
													OFFSET -4.651108 6.158463 0.251582
												}
											}
										}
									}
								}
								JOINT LeftHandIndex1
								{
									OFFSET 21.310577 -0.490082 6.209344
									CHANNELS 3 Xrotation Yrotation Zrotation
									JOINT LeftHandIndex2
									{
										OFFSET 7.536453 0.000000 0.000000
										CHANNELS 3 Xrotation Yrotation Zrotation
										JOINT LeftHandIndex3
										{
											OFFSET 7.512344 0.000000 0.000000
											CHANNELS 3 Xrotation Yrotation Zrotation
											JOINT LeftHandIndex4
											{
												OFFSET 10.212402 0.000000 0.000001
												CHANNELS 3 Xrotation Yrotation Zrotation
												End Site
												{
													OFFSET -5.180801 8.690506 1.388433
												}
											}
										}
									}
								}
							}
						}
					}
				}
				JOINT RightShoulder
				{
					OFFSET -17.399500 24.608795 1.168800
					CHANNELS 3 Xrotation Yrotation Zrotation
					JOINT RightArm
					{
						OFFSET -18.980635 5.765305 1.818600
						CHANNELS 3 Xrotation Yrotation Zrotation
						JOINT RightForeArm
						{
							OFFSET -49.290169 0.000000 0.000000
							CHANNELS 3 Xrotation Yrotation Zrotation
							JOINT RightHand
							{
								OFFSET -31.562012 0.000000 0.000000
								CHANNELS 3 Xrotation Yrotation Zrotation
								JOINT RightHandThumb1
								{
									OFFSET -6.133995 -4.388519 7.076070
									CHANNELS 3 Xrotation Yrotation Zrotation
									JOINT RightHandThumb2
									{
										OFFSET -6.037666 -3.485840 3.485847
										CHANNELS 3 Xrotation Yrotation Zrotation
										JOINT RightHandThumb3
										{
											OFFSET -6.496506 -3.750763 3.750761
											CHANNELS 3 Xrotation Yrotation Zrotation
											JOINT RightHandThumb4
											{
												OFFSET -5.616882 -3.242905 3.242910
												CHANNELS 3 Xrotation Yrotation Zrotation
												End Site
												{
													OFFSET 1.254608 7.132141 0.375429
												}
											}
										}
									}
								}
								JOINT RightHandIndex1
								{
									OFFSET -21.310577 -0.490082 6.209344
									CHANNELS 3 Xrotation Yrotation Zrotation
									JOINT RightHandIndex2
									{
										OFFSET -7.536453 0.000000 0.000000
										CHANNELS 3 Xrotation Yrotation Zrotation
										JOINT RightHandIndex3
										{
											OFFSET -7.512344 0.000000 0.000000
											CHANNELS 3 Xrotation Yrotation Zrotation
											JOINT RightHandIndex4
											{
												OFFSET -10.212402 0.000000 0.000001
												CHANNELS 3 Xrotation Yrotation Zrotation
												End Site
												{
													OFFSET 5.180801 8.690506 1.388433
												}
											}
										}
									}
								}
								JOINT RightHandMiddle1
								{
									OFFSET -23.373947 0.000000 0.000001
									CHANNELS 3 Xrotation Yrotation Zrotation
									JOINT RightHandMiddle2
									{
										OFFSET -6.996567 0.000000 0.000000
										CHANNELS 3 Xrotation Yrotation Zrotation
										JOINT RightHandMiddle3
										{
											OFFSET -7.015945 0.000000 0.000000
											CHANNELS 3 Xrotation Yrotation Zrotation
											JOINT RightHandMiddle4
											{
												OFFSET -7.721573 0.000000 0.000000
												CHANNELS 3 Xrotation Yrotation Zrotation
												End Site
												{
													OFFSET 4.651108 6.158463 0.251582
												}
											}
										}
									}
								}
								JOINT RightHandRing1
								{
									OFFSET -22.726120 -0.094986 -6.500475
									CHANNELS 3 Xrotation Yrotation Zrotation
									JOINT RightHandRing2
									{
										OFFSET -6.408615 0.000000 0.000000
										CHANNELS 3 Xrotation Yrotation Zrotation
										JOINT RightHandRing3
										{
											OFFSET -6.150223 0.000000 0.000000
											CHANNELS 3 Xrotation Yrotation Zrotation
											JOINT RightHandRing4
											{
												OFFSET -6.145386 0.000000 0.000000
												CHANNELS 3 Xrotation Yrotation Zrotation
												End Site
												{
													OFFSET 3.671402 4.923981 -0.202372
												}
											}
										}
									}
								}
								JOINT RightHandPinky1
								{
									OFFSET -18.920792 -0.453171 -11.426712
									CHANNELS 3 Xrotation Yrotation Zrotation
									JOINT RightHandPinky2
									{
										OFFSET -4.919586 0.000000 0.000000
										CHANNELS 3 Xrotation Yrotation Zrotation
										JOINT RightHandPinky3
										{
											OFFSET -5.233047 0.000000 0.000000
											CHANNELS 3 Xrotation Yrotation Zrotation
											JOINT RightHandPinky4
											{
												OFFSET -5.571716 0.000000 0.000000
												CHANNELS 3 Xrotation Yrotation Zrotation
												End Site
												{
													OFFSET 3.459808 4.342407 -0.466164
												}
											}
										}
									}
								}
							}
						}
					}
				}
			}
		}
	}
	JOINT LeftUpLeg
	{
		OFFSET 19.899099 -7.885101 -3.429500
		CHANNELS 3 Xrotation Yrotation Zrotation
		JOINT LeftLeg
		{
			OFFSET 1.745560 -36.997807 10.304700
			CHANNELS 3 Xrotation Yrotation Zrotation
			JOINT LeftFoot
			{
				OFFSET -1.745558 -29.803308 -13.615400
				CHANNELS 3 Xrotation Yrotation Zrotation
				JOINT LeftToeBase
				{
					OFFSET 1.181900 -18.539904 15.226099
					CHANNELS 3 Xrotation Yrotation Zrotation
					JOINT LeftToe_End
					{
						OFFSET -0.863701 1.402801 16.534700
						CHANNELS 3 Xrotation Yrotation Zrotation
						End Site
						{
							OFFSET 0.000000 16.616566 0.000000
						}
					}
				}
			}
		}
	}
	JOINT RightUpLeg
	{
		OFFSET -19.899099 -7.885101 -3.429500
		CHANNELS 3 Xrotation Yrotation Zrotation
		JOINT RightLeg
		{
			OFFSET -1.745560 -36.997807 10.304700
			CHANNELS 3 Xrotation Yrotation Zrotation
			JOINT RightFoot
			{
				OFFSET 1.745558 -29.803308 -13.615400
				CHANNELS 3 Xrotation Yrotation Zrotation
				JOINT RightToeBase
				{
					OFFSET -1.181900 -18.539904 15.226099
					CHANNELS 3 Xrotation Yrotation Zrotation
					JOINT RightToe_End
					{
						OFFSET 0.863701 1.402801 16.534700
						CHANNELS 3 Xrotation Yrotation Zrotation
						End Site
						{
							OFFSET 0.000000 16.616566 0.000000
						}
					}
				}
			}
		}
	}
}
MOTION
Frames: 4
Frame Time: 0.033333
1.928115 89.815094 3.102265 -4.731117 5.130352 -0.169626 9.193874 -4.883765 3.330234 2.905936 -1.464808 -1.430113 2.936853 -1.395272 -1.400196 -0.311548 -0.632714 3.236818 -13.641361 1.478886 -0.478429 -0.000000 0.000000 -0.000000 0.575628 -0.827663 -9.114506 -0.357119 -13.689472 -59.280325 0.000130 -80.746551 0.000121 -126.772477 8.383704 13.926055 17.322210 -37.414000 18.619065 -12.533889 8.749661 -5.074203 -12.770406 4.523658 14.745212 0.000000 0.000003 -0.000003 -2.305436 4.694508 -62.624413 3.693089 5.439859 -68.323011 0.099185 -1.074547 10.546471 -0.000001 -0.000004 -0.000001 -2.632396 5.165363 -67.562578 4.126266 5.591914 -72.827329 0.000041 0.021511 -0.209964 -0.000001 -0.000001 0.000003 -6.730872 3.638981 -68.429623 3.552736 5.382208 -66.834781 0.082043 -0.978131 9.590506 -0.000000 -0.000002 0.000008 -8.304940 2.722306 -67.324075 3.992660 5.549061 -71.451114 0.198057 -1.511912 14.925333 -0.000003 0.000001 0.000001 8.074209 16.041775 -3.181127 6.913100 11.160246 62.195573 0.000151 105.932628 -0.000109 -22.601873 -15.710282 31.954763 61.334327 30.777529 -12.521087 -16.865149 -36.773534 -14.662270 -7.388840 -51.233208 -42.021434 -0.000001 -0.000001 0.000001 -2.520371 4.938612 18.299289 1.715293 -3.611926 50.794327 5.682265 -4.543187 102.729153 -0.000001 -0.000003 -0.000001 9.149400 -8.657911 71.635427 6.185882 -4.399632 109.182357 4.857822 -4.652855 92.471937 -0.000000 0.000000 -0.000008 5.893623 -7.437624 74.427335 4.024126 -4.614023 82.178951 0.984470 -2.865623 37.913455 -0.000000 0.000001 -0.000002 7.653950 -7.531528 79.885107 1.640495 -3.549734 49.596712 3.827088 -4.582756 79.721838 0.000001 -0.000004 0.000002 -23.842737 5.727260 1.354567 53.418145 3.542539 5.878321 5.381799 2.053788 -1.063605 -11.491556 1.108837 -5.435841 0.000001 0.000001 -0.000000 -9.114092 -7.202744 5.818612 25.749955 -1.638478 -0.462661 -11.770561 2.641021 -5.993709 -0.128781 -0.000001 -0.000001 0.000000 0.000000 -0.000000 
2.279836 89.460869 -0.276936 -5.311556 4.531387 -0.842310 9.463420 -4.991558 4.228766 2.925737 -1.502392 -1.289261 2.957012 -1.431737 -1.258646 -0.279470 -0.615656 3.271922 -14.385490 1.836721 -0.861169 0.000000 -0.000000 -0.000000 0.575628 -0.827663 -9.114505 -0.357118 -13.689470 -59.280325 0.000121 -80.746551 0.000127 -126.491483 8.077506 13.877116 17.322215 -37.414004 18.619072 -12.533888 8.749662 -5.074206 -12.770409 4.523662 14.745202 -0.000000 0.000001 -0.000002 -2.305436 4.694508 -62.624413 3.693084 5.439855 -68.323011 0.099188 -1.074546 10.546471 -0.000001 0.000001 0.000001 -2.632398 5.165365 -67.562585 4.126263 5.591916 -72.827322 0.000041 0.021512 -0.209959 -0.000001 0.000001 0.000003 -6.730870 3.638981 -68.429616 3.552735 5.382213 -66.834781 0.082044 -0.978131 9.590506 -0.000001 -0.000003 0.000001 -8.304946 2.722308 -67.324075 3.992660 5.549064 -71.451114 0.198061 -1.511911 14.925331 -0.000003 0.000002 -0.000001 8.074211 16.041775 -3.181127 6.884172 11.243013 62.239259 0.000159 105.932628 -0.000135 -22.730724 -15.542695 32.161493 61.334327 30.777526 -12.521083 -16.865142 -36.773544 -14.662270 -7.388842 -51.233194 -42.021438 0.000002 -0.000003 0.000001 -2.520365 4.938611 18.299294 1.715291 -3.611926 50.794321 5.682267 -4.543184 102.729153 -0.000001 -0.000001 -0.000001 9.149400 -8.657913 71.635434 6.185882 -4.399631 109.182363 4.857820 -4.652856 92.471937 0.000000 0.000000 -0.000004 5.893625 -7.437630 74.427335 4.024124 -4.614023 82.178944 0.984467 -2.865622 37.913455 0.000000 0.000000 -0.000002 7.653952 -7.531531 79.885107 1.640495 -3.549732 49.596705 3.827093 -4.582754 79.721838 -0.000000 -0.000004 0.000002 -20.519545 4.897161 2.246197 55.041486 2.045120 5.544009 6.123803 1.491416 -5.848302 -17.837420 0.214960 -0.683396 0.000001 -0.000000 -0.000000 -11.780454 -9.192305 6.675164 26.119840 0.156465 -1.887525 -8.608063 2.224891 -5.988721 -0.128781 -0.000001 -0.000000 -0.000000 0.000000 -0.000000 
2.677149 88.816032 -3.788540 -5.634617 4.150301 -1.200480 9.471652 -5.221403 4.773279 2.928659 -1.560182 -1.177039 2.960120 -1.489326 -1.145333 -0.284566 -0.563185 3.322004 -14.786938 2.362139 -1.053079 0.000000 -0.000000 -0.000000 0.575627 -0.827663 -9.114503 -0.357119 -13.689470 -59.280325 0.000123 -80.746551 0.000131 -126.242796 7.821162 13.834197 17.322214 -37.414007 18.619067 -12.533891 8.749658 -5.074200 -12.770410 4.523661 14.745205 -0.000001 0.000001 0.000001 -2.305437 4.694501 -62.624413 3.693088 5.439853 -68.323011 0.099187 -1.074548 10.546479 -0.000002 -0.000001 -0.000002 -2.632396 5.165358 -67.562578 4.126264 5.591916 -72.827322 0.000043 0.021509 -0.209966 -0.000002 -0.000000 0.000005 -6.730873 3.638977 -68.429616 3.552733 5.382210 -66.834788 0.082043 -0.978134 9.590508 -0.000000 -0.000002 0.000002 -8.304944 2.722306 -67.324075 3.992660 5.549062 -71.451121 0.198064 -1.511909 14.925334 -0.000002 0.000002 -0.000001 8.074210 16.041773 -3.181127 6.885828 11.238236 62.236745 0.000136 105.932628 -0.000124 -22.877099 -15.354965 32.396690 61.334320 30.777526 -12.521087 -16.865144 -36.773537 -14.662266 -7.388840 -51.233201 -42.021427 0.000000 -0.000002 0.000001 -2.520371 4.938609 18.299291 1.715294 -3.611930 50.794317 5.682262 -4.543188 102.729153 -0.000002 -0.000001 -0.000001 9.149396 -8.657914 71.635427 6.185880 -4.399629 109.182357 4.857821 -4.652858 92.471937 -0.000000 0.000000 -0.000008 5.893621 -7.437630 74.427335 4.024123 -4.614019 82.178944 0.984467 -2.865620 37.913461 -0.000002 -0.000002 -0.000000 7.653947 -7.531533 79.885107 1.640497 -3.549737 49.596712 3.827087 -4.582759 79.721838 -0.000002 -0.000004 0.000005 -17.405071 4.450756 2.464789 56.498266 0.073575 5.320309 6.807209 0.868473 -10.246487 -22.955035 -1.840712 4.505200 -0.000001 -0.000000 0.000000 -15.094959 -11.377429 7.184945 27.085684 1.870994 -3.503540 -5.657314 1.745813 -5.860780 -0.128777 -0.000000 -0.000001 0.000000 0.000000 -0.000000 
3.033532 88.181046 -7.349454 -5.863035 3.830699 -1.466357 9.276952 -5.526667 5.150878 2.912348 -1.629729 -1.092958 2.943852 -1.558822 -1.060009 -0.233232 -0.529259 3.357626 -14.888445 2.563310 -1.106751 0.000000 0.000000 0.000000 0.575628 -0.827663 -9.114502 -0.357117 -13.689470 -59.280325 0.000149 -80.746551 0.000129 -126.021143 7.603398 13.797041 17.322212 -37.413997 18.619065 -12.533890 8.749662 -5.074199 -12.770406 4.523661 14.745210 -0.000001 -0.000000 0.000000 -2.305434 4.694511 -62.624420 3.693088 5.439854 -68.323011 0.099186 -1.074548 10.546475 0.000000 -0.000000 -0.000001 -2.632396 5.165366 -67.562585 4.126265 5.591919 -72.827322 0.000045 0.021512 -0.209966 -0.000002 0.000000 0.000003 -6.730871 3.638981 -68.429623 3.552730 5.382211 -66.834781 0.082044 -0.978130 9.590507 0.000000 -0.000002 0.000004 -8.304944 2.722314 -67.324082 3.992661 5.549065 -71.451121 0.198061 -1.511908 14.925333 -0.000003 0.000001 -0.000001 8.074210 16.041775 -3.181127 6.902025 11.190025 62.212478 0.000152 105.932635 -0.000124 -23.025966 -15.166847 32.633595 61.334327 30.777529 -12.521086 -16.865142 -36.773537 -14.662263 -7.388841 -51.233201 -42.021424 0.000004 -0.000002 0.000002 -2.520367 4.938608 18.299291 1.715291 -3.611929 50.794321 5.682260 -4.543188 102.729153 -0.000002 -0.000003 0.000001 9.149405 -8.657908 71.635427 6.185881 -4.399629 109.182357 4.857824 -4.652855 92.471937 0.000001 -0.000001 -0.000009 5.893626 -7.437629 74.427335 4.024126 -4.614020 82.178944 0.984467 -2.865620 37.913455 -0.000002 -0.000000 -0.000002 7.653951 -7.531533 79.885107 1.640495 -3.549736 49.596708 3.827090 -4.582754 79.721845 -0.000000 -0.000002 0.000002 -13.939638 4.250678 2.474031 56.984948 -1.588710 5.028908 7.490141 0.207960 -13.795450 -26.997721 -4.563947 9.141001 -0.000001 -0.000000 -0.000000 -18.310841 -13.406153 7.604822 27.465475 3.438745 -5.016222 -2.296390 1.300715 -5.735240 -0.128779 0.000000 -0.000000 0.000000 -0.000000 -0.000000 
